G04 Layer_Color=65535*
%FSLAX25Y25*%
%MOIN*%
G70*
G01*
G75*
%ADD10C,0.01000*%
%ADD14C,0.00394*%
%ADD15C,0.00787*%
D10*
X34499Y6000D02*
X30500D01*
X34499Y9999D01*
Y10998D01*
X33499Y11998D01*
X31500D01*
X30500Y10998D01*
X36498Y7000D02*
X37498Y6000D01*
X39497D01*
X40497Y7000D01*
Y10998D01*
X39497Y11998D01*
X37498D01*
X36498Y10998D01*
Y9999D01*
X37498Y8999D01*
X40497D01*
X48494Y10998D02*
X49494Y11998D01*
X51493D01*
X52493Y10998D01*
Y9999D01*
X51493Y8999D01*
X50494D01*
X51493D01*
X52493Y7999D01*
Y7000D01*
X51493Y6000D01*
X49494D01*
X48494Y7000D01*
X54492Y10998D02*
X55492Y11998D01*
X57491D01*
X58491Y10998D01*
Y7000D01*
X57491Y6000D01*
X55492D01*
X54492Y7000D01*
Y10998D01*
X34499Y16000D02*
X30500D01*
X34499Y19999D01*
Y20998D01*
X33499Y21998D01*
X31500D01*
X30500Y20998D01*
X36498Y21998D02*
X40497D01*
Y20998D01*
X36498Y17000D01*
Y16000D01*
X52493D02*
X48494D01*
X52493Y19999D01*
Y20998D01*
X51493Y21998D01*
X49494D01*
X48494Y20998D01*
X54492D02*
X55492Y21998D01*
X57491D01*
X58491Y20998D01*
Y19999D01*
X57491Y18999D01*
X58491Y17999D01*
Y17000D01*
X57491Y16000D01*
X55492D01*
X54492Y17000D01*
Y17999D01*
X55492Y18999D01*
X54492Y19999D01*
Y20998D01*
X55492Y18999D02*
X57491D01*
X34499Y26000D02*
X30500D01*
X34499Y29999D01*
Y30998D01*
X33499Y31998D01*
X31500D01*
X30500Y30998D01*
X40497Y31998D02*
X36498D01*
Y28999D01*
X38497Y29999D01*
X39497D01*
X40497Y28999D01*
Y27000D01*
X39497Y26000D01*
X37498D01*
X36498Y27000D01*
X52493Y26000D02*
X48494D01*
X52493Y29999D01*
Y30998D01*
X51493Y31998D01*
X49494D01*
X48494Y30998D01*
X58491Y31998D02*
X56492Y30998D01*
X54492Y28999D01*
Y27000D01*
X55492Y26000D01*
X57491D01*
X58491Y27000D01*
Y27999D01*
X57491Y28999D01*
X54492D01*
X34499Y36000D02*
X30500D01*
X34499Y39999D01*
Y40998D01*
X33499Y41998D01*
X31500D01*
X30500Y40998D01*
X36498D02*
X37498Y41998D01*
X39497D01*
X40497Y40998D01*
Y39999D01*
X39497Y38999D01*
X38497D01*
X39497D01*
X40497Y37999D01*
Y37000D01*
X39497Y36000D01*
X37498D01*
X36498Y37000D01*
X52493Y36000D02*
X48494D01*
X52493Y39999D01*
Y40998D01*
X51493Y41998D01*
X49494D01*
X48494Y40998D01*
X57491Y36000D02*
Y41998D01*
X54492Y38999D01*
X58491D01*
X34499Y46000D02*
X30500D01*
X34499Y49999D01*
Y50998D01*
X33499Y51998D01*
X31500D01*
X30500Y50998D01*
X36498Y46000D02*
X38497D01*
X37498D01*
Y51998D01*
X36498Y50998D01*
X51493Y46000D02*
X47495D01*
X51493Y49999D01*
Y50998D01*
X50494Y51998D01*
X48494D01*
X47495Y50998D01*
X57491Y46000D02*
X53493D01*
X57491Y49999D01*
Y50998D01*
X56492Y51998D01*
X54492D01*
X53493Y50998D01*
X30500Y56000D02*
X32499D01*
X31500D01*
Y61998D01*
X30500Y60998D01*
X35498Y57000D02*
X36498Y56000D01*
X38497D01*
X39497Y57000D01*
Y60998D01*
X38497Y61998D01*
X36498D01*
X35498Y60998D01*
Y59999D01*
X36498Y58999D01*
X39497D01*
X51493Y56000D02*
X47495D01*
X51493Y59999D01*
Y60998D01*
X50494Y61998D01*
X48494D01*
X47495Y60998D01*
X53493D02*
X54492Y61998D01*
X56492D01*
X57491Y60998D01*
Y57000D01*
X56492Y56000D01*
X54492D01*
X53493Y57000D01*
Y60998D01*
X31500Y66000D02*
X33499D01*
X32500D01*
Y71998D01*
X31500Y70998D01*
X36498Y71998D02*
X40497D01*
Y70998D01*
X36498Y67000D01*
Y66000D01*
X48494D02*
X50494D01*
X49494D01*
Y71998D01*
X48494Y70998D01*
X53493D02*
X54493Y71998D01*
X56492D01*
X57492Y70998D01*
Y69999D01*
X56492Y68999D01*
X57492Y67999D01*
Y67000D01*
X56492Y66000D01*
X54493D01*
X53493Y67000D01*
Y67999D01*
X54493Y68999D01*
X53493Y69999D01*
Y70998D01*
X54493Y68999D02*
X56492D01*
X31500Y76000D02*
X33499D01*
X32500D01*
Y81998D01*
X31500Y80998D01*
X40497Y81998D02*
X36498D01*
Y78999D01*
X38498Y79999D01*
X39497D01*
X40497Y78999D01*
Y77000D01*
X39497Y76000D01*
X37498D01*
X36498Y77000D01*
X48494Y76000D02*
X50494D01*
X49494D01*
Y81998D01*
X48494Y80998D01*
X57492Y81998D02*
X55492Y80998D01*
X53493Y78999D01*
Y77000D01*
X54493Y76000D01*
X56492D01*
X57492Y77000D01*
Y77999D01*
X56492Y78999D01*
X53493D01*
X31500Y86000D02*
X33499D01*
X32500D01*
Y91998D01*
X31500Y90998D01*
X36498D02*
X37498Y91998D01*
X39497D01*
X40497Y90998D01*
Y89999D01*
X39497Y88999D01*
X38498D01*
X39497D01*
X40497Y87999D01*
Y87000D01*
X39497Y86000D01*
X37498D01*
X36498Y87000D01*
X48494Y86000D02*
X50494D01*
X49494D01*
Y91998D01*
X48494Y90998D01*
X56492Y86000D02*
Y91998D01*
X53493Y88999D01*
X57492D01*
X31500Y96000D02*
X33499D01*
X32500D01*
Y101998D01*
X31500Y100998D01*
X36498Y96000D02*
X38498D01*
X37498D01*
Y101998D01*
X36498Y100998D01*
X47495Y96000D02*
X49494D01*
X48494D01*
Y101998D01*
X47495Y100998D01*
X56492Y96000D02*
X52493D01*
X56492Y99999D01*
Y100998D01*
X55492Y101998D01*
X53493D01*
X52493Y100998D01*
X32500Y107000D02*
X33500Y106000D01*
X35499D01*
X36499Y107000D01*
Y110998D01*
X35499Y111998D01*
X33500D01*
X32500Y110998D01*
Y109999D01*
X33500Y108999D01*
X36499D01*
X44496Y106000D02*
X46496D01*
X45496D01*
Y111998D01*
X44496Y110998D01*
X49494D02*
X50494Y111998D01*
X52494D01*
X53493Y110998D01*
Y107000D01*
X52494Y106000D01*
X50494D01*
X49494Y107000D01*
Y110998D01*
X32500Y121998D02*
X36499D01*
Y120998D01*
X32500Y117000D01*
Y116000D01*
X44496Y120998D02*
X45496Y121998D01*
X47495D01*
X48495Y120998D01*
Y119999D01*
X47495Y118999D01*
X48495Y117999D01*
Y117000D01*
X47495Y116000D01*
X45496D01*
X44496Y117000D01*
Y117999D01*
X45496Y118999D01*
X44496Y119999D01*
Y120998D01*
X45496Y118999D02*
X47495D01*
X36499Y131998D02*
X32500D01*
Y128999D01*
X34499Y129999D01*
X35499D01*
X36499Y128999D01*
Y127000D01*
X35499Y126000D01*
X33500D01*
X32500Y127000D01*
X48495Y131998D02*
X46496Y130998D01*
X44496Y128999D01*
Y127000D01*
X45496Y126000D01*
X47495D01*
X48495Y127000D01*
Y127999D01*
X47495Y128999D01*
X44496D01*
X32500Y140998D02*
X33500Y141998D01*
X35499D01*
X36499Y140998D01*
Y139999D01*
X35499Y138999D01*
X34499D01*
X35499D01*
X36499Y137999D01*
Y137000D01*
X35499Y136000D01*
X33500D01*
X32500Y137000D01*
X47495Y136000D02*
Y141998D01*
X44496Y138999D01*
X48495D01*
X32500Y146000D02*
X34499D01*
X33500D01*
Y151998D01*
X32500Y150998D01*
X47495Y146000D02*
X43496D01*
X47495Y149999D01*
Y150998D01*
X46496Y151998D01*
X44496D01*
X43496Y150998D01*
D14*
X69968Y17594D02*
Y17201D01*
Y17594D01*
X73000Y19563D02*
Y137673D01*
X78905D01*
Y19563D02*
Y137673D01*
X73000Y19563D02*
X78905D01*
Y23500D02*
X91504D01*
X78905Y31374D02*
X91504D01*
X78905Y39248D02*
X91504D01*
X78905Y47122D02*
X91504D01*
X78905Y54996D02*
X91504D01*
X78905Y62870D02*
X91504D01*
X78905Y70744D02*
X91504D01*
X78905Y78618D02*
X91504D01*
X78905Y86492D02*
X91504D01*
X78905Y94366D02*
X91504D01*
X78905Y102240D02*
X91504D01*
X78905Y110114D02*
X91504D01*
X78905Y117988D02*
X91504D01*
X78905Y125862D02*
X91504D01*
X78905Y133736D02*
X91504D01*
D15*
X-232Y3106D02*
X26500D01*
X-232D02*
Y153894D01*
X9610D01*
X-26807Y8500D02*
X-232D01*
X-26807Y18500D02*
X-232D01*
X-26807Y28500D02*
X-232D01*
X-26807Y38500D02*
X-232D01*
X-26807Y48500D02*
X-232D01*
X-26807Y58500D02*
X-232D01*
X-26807Y68500D02*
X-232D01*
X-26807Y78500D02*
X-232D01*
X-26807Y88500D02*
X-232D01*
X-26807Y98500D02*
X-232D01*
X-26807Y108500D02*
X-232D01*
X-26807Y118500D02*
X-232D01*
X-26807Y128500D02*
X-232D01*
X-26807Y138500D02*
X-232D01*
X-26807Y148500D02*
X-232D01*
M02*
