M48
;Layer_Color=9474304
;FILE_FORMAT=2:4
INCH,TZ
;TYPE=PLATED
T1F00S00C0.0358
T2F00S00C0.0433
%
T01
X6013Y2350
X6800
Y3137
Y3925
X6013
Y3137
Y4712
Y5500
X6800
Y4712
Y6287
Y7074
X6013
Y6287
Y7862
X6800
Y8649
Y9437
X6013
Y8649
Y10224
Y11011
X6800
Y10224
Y11799
Y12586
X6013
Y11799
Y13374
X6800
T02
X1650Y850
X2650
Y1850
X1650
Y2850
X2650
Y3850
X1650
Y4850
X2650
Y5850
X1650
Y6850
X2650
Y7850
X1650
Y8850
X2650
Y9850
X1650
Y10850
X2650
Y11850
X1650
Y12850
X2650
Y13850
X1650
Y14850
X2650
M30
