M48
;Layer_Color=9474304
;FILE_FORMAT=2:4
INCH,TZ
;TYPE=PLATED
T1F00S00C0.0118
T2F00S00C0.0280
T3F00S00C0.0433
%
T01
X4250Y3000
X4500Y3250
X4750Y3500
X5250Y3750
X5500Y4000
X4250Y3850
X4500Y4850
X5500Y2500
X5900Y2000
X6400Y1750
X7000Y2250
X7250Y2750
X7500Y3000
X7750Y3250
X8000Y3500
X8250Y3750
X7750Y12100
X8000Y12500
X8250Y13500
X7500Y13250
X7000Y12850
X7250Y11850
X6750Y13850
X5900Y14350
X6400Y14850
X4500Y13500
X3950Y13250
X3500Y13400
X3732Y12100
X4250Y12350
X4750Y12500
Y10750
X4000Y10850
Y10550
X4250Y10350
X3500Y10250
X3250Y9850
X3500Y9400
X3750Y9100
X4000Y8500
X4500Y8000
X5250Y6850
X4750Y5850
X3500Y11250
X3250Y11500
T02
X5900Y4350
Y4850
Y5350
X6400
Y4850
Y4350
Y5850
Y6350
Y6850
Y7350
Y7850
Y8350
Y8850
Y9350
Y9850
Y10350
Y10850
Y11350
X5900
Y10850
Y10350
Y9850
Y9350
Y8850
Y8350
Y7850
Y7350
Y6850
Y6350
Y5850
T03
X1650Y850
X2650
Y1850
X1650
Y2850
X2650
Y3850
X1650
Y4850
X2650
Y5850
X1650
Y6850
X2650
Y7850
X1650
Y8850
X2650
Y9850
X1650
Y10850
X2650
Y11850
X1650
Y12850
X2650
Y13850
X1650
Y14850
X2650
M30
