G04 Layer_Physical_Order=2*
G04 Layer_Color=16711680*
%FSLAX25Y25*%
%MOIN*%
G70*
G01*
G75*
%ADD10C,0.01000*%
%ADD11C,0.04331*%
%ADD12R,0.06496X0.06496*%
%ADD13C,0.06496*%
%ADD14C,0.02362*%
D10*
X82500Y37500D02*
Y57000D01*
X66000Y73500D02*
X82500Y57000D01*
X64000Y73500D02*
X66000D01*
X64000Y17500D02*
Y43500D01*
X59000Y20000D02*
Y43500D01*
X70000Y22500D02*
Y43500D01*
X65000Y48500D02*
X70000Y43500D01*
X64000Y48500D02*
X65000D01*
X64000Y53500D02*
X66000D01*
X72500Y47000D01*
Y27500D02*
Y47000D01*
X55000Y25000D02*
Y40000D01*
X75000Y30000D02*
Y49000D01*
X65500Y58500D02*
X75000Y49000D01*
X64000Y58500D02*
X65500D01*
X42500Y30000D02*
Y38500D01*
X77500Y32500D02*
Y51000D01*
X65000Y63500D02*
X77500Y51000D01*
X64000Y63500D02*
X65000D01*
X45000Y32500D02*
Y48500D01*
X80000Y35000D02*
Y54500D01*
X66000Y68500D02*
X80000Y54500D01*
X64000Y68500D02*
X66000D01*
X47500Y35000D02*
Y58500D01*
X52500Y37500D02*
Y68500D01*
X64000Y78500D02*
X82500Y97000D01*
Y135000D01*
X45000Y80000D02*
Y135000D01*
X64000Y83500D02*
X80000Y99500D01*
Y125000D01*
X47500Y107500D02*
Y125000D01*
X40000Y85000D02*
Y105500D01*
X64000Y88500D02*
X77500Y102000D01*
Y121000D01*
X37319D02*
X37500Y120819D01*
Y91000D02*
Y120819D01*
X35000Y94000D02*
Y102500D01*
X32500Y98500D02*
Y115000D01*
X42500Y103500D02*
Y123500D01*
X35000Y112500D02*
Y134000D01*
X64000Y93500D02*
X75000Y104500D01*
Y132500D01*
X39500Y109000D02*
Y132500D01*
Y109000D02*
X40000Y108500D01*
X64000Y98500D02*
X72500Y107000D01*
Y118500D01*
X64000Y103500D02*
X70000Y109500D01*
Y128500D01*
X64000Y108500D02*
X67500Y112000D01*
Y138500D01*
X59000Y113500D02*
Y143500D01*
X64000Y113500D02*
Y148500D01*
D11*
X59000Y113500D02*
D03*
X64000D02*
D03*
X59000Y108500D02*
D03*
X64000D02*
D03*
X59000Y103500D02*
D03*
X64000D02*
D03*
X59000Y98500D02*
D03*
X64000D02*
D03*
X59000Y93500D02*
D03*
X64000D02*
D03*
X59000Y88500D02*
D03*
X64000D02*
D03*
X59000Y83500D02*
D03*
X64000D02*
D03*
X59000Y78500D02*
D03*
X64000D02*
D03*
X59000Y73500D02*
D03*
X64000D02*
D03*
X59000Y68500D02*
D03*
X64000D02*
D03*
X59000Y63500D02*
D03*
X64000D02*
D03*
X59000Y58500D02*
D03*
X64000D02*
D03*
X59000Y53500D02*
D03*
X64000D02*
D03*
X59000Y48500D02*
D03*
X64000D02*
D03*
X59000Y43500D02*
D03*
X64000D02*
D03*
D12*
X26500Y8500D02*
D03*
D13*
X16500D02*
D03*
X26500Y18500D02*
D03*
X16500D02*
D03*
X26500Y28500D02*
D03*
X16500D02*
D03*
X26500Y38500D02*
D03*
X16500D02*
D03*
X26500Y48500D02*
D03*
X16500D02*
D03*
X26500Y58500D02*
D03*
X16500D02*
D03*
X26500Y68500D02*
D03*
X16500D02*
D03*
X26500Y78500D02*
D03*
X16500D02*
D03*
X26500Y88500D02*
D03*
X16500D02*
D03*
X26500Y98500D02*
D03*
X16500D02*
D03*
X26500Y108500D02*
D03*
X16500D02*
D03*
X26500Y118500D02*
D03*
X16500D02*
D03*
X26500Y128500D02*
D03*
X16500D02*
D03*
X26500Y138500D02*
D03*
X16500D02*
D03*
X26500Y148500D02*
D03*
X16500D02*
D03*
D14*
X64000Y17500D02*
D03*
X59000Y20000D02*
D03*
X70000Y22500D02*
D03*
X72500Y27500D02*
D03*
X55000Y25000D02*
D03*
Y40000D02*
D03*
X75000Y30000D02*
D03*
X42500D02*
D03*
Y38500D02*
D03*
X77500Y32500D02*
D03*
X45000D02*
D03*
Y48500D02*
D03*
X80000Y35000D02*
D03*
X47500D02*
D03*
Y58500D02*
D03*
X82500Y37500D02*
D03*
X52500D02*
D03*
Y68500D02*
D03*
X82500Y135000D02*
D03*
X45000D02*
D03*
Y80000D02*
D03*
X80000Y125000D02*
D03*
X47500D02*
D03*
Y107500D02*
D03*
X40000Y105500D02*
D03*
Y85000D02*
D03*
X77500Y121000D02*
D03*
X37319D02*
D03*
X37500Y91000D02*
D03*
X35000Y94000D02*
D03*
Y102500D02*
D03*
X32500Y98500D02*
D03*
Y115000D02*
D03*
X42500Y103500D02*
D03*
Y123500D02*
D03*
X35000Y112500D02*
D03*
Y134000D02*
D03*
X75000Y132500D02*
D03*
X39500D02*
D03*
X40000Y108500D02*
D03*
X72500Y118500D02*
D03*
X70000Y128500D02*
D03*
X67500Y138500D02*
D03*
X59000Y143500D02*
D03*
X64000Y148500D02*
D03*
M02*
