G04 Layer_Color=8388736*
%FSLAX25Y25*%
%MOIN*%
G70*
G01*
G75*
%ADD18C,0.04921*%
%ADD19R,0.07087X0.07087*%
%ADD20C,0.07087*%
D18*
X59000Y113500D02*
D03*
X64000D02*
D03*
X59000Y108500D02*
D03*
X64000D02*
D03*
X59000Y103500D02*
D03*
X64000D02*
D03*
X59000Y98500D02*
D03*
X64000D02*
D03*
X59000Y93500D02*
D03*
X64000D02*
D03*
X59000Y88500D02*
D03*
X64000D02*
D03*
X59000Y83500D02*
D03*
X64000D02*
D03*
X59000Y78500D02*
D03*
X64000D02*
D03*
X59000Y73500D02*
D03*
X64000D02*
D03*
X59000Y68500D02*
D03*
X64000D02*
D03*
X59000Y63500D02*
D03*
X64000D02*
D03*
X59000Y58500D02*
D03*
X64000D02*
D03*
X59000Y53500D02*
D03*
X64000D02*
D03*
X59000Y48500D02*
D03*
X64000D02*
D03*
X59000Y43500D02*
D03*
X64000D02*
D03*
D19*
X26500Y8500D02*
D03*
D20*
X16500D02*
D03*
X26500Y18500D02*
D03*
X16500D02*
D03*
X26500Y28500D02*
D03*
X16500D02*
D03*
X26500Y38500D02*
D03*
X16500D02*
D03*
X26500Y48500D02*
D03*
X16500D02*
D03*
X26500Y58500D02*
D03*
X16500D02*
D03*
X26500Y68500D02*
D03*
X16500D02*
D03*
X26500Y78500D02*
D03*
X16500D02*
D03*
X26500Y88500D02*
D03*
X16500D02*
D03*
X26500Y98500D02*
D03*
X16500D02*
D03*
X26500Y108500D02*
D03*
X16500D02*
D03*
X26500Y118500D02*
D03*
X16500D02*
D03*
X26500Y128500D02*
D03*
X16500D02*
D03*
X26500Y138500D02*
D03*
X16500D02*
D03*
X26500Y148500D02*
D03*
X16500D02*
D03*
M02*
